<svg width="40" height="35" viewBox="0 0 40 35" fill="none" xmlns="http://www.w3.org/2000/svg">
<g clip-path="url(#clip0_29_267)">
<path d="M25.0833 7.29166C26.7112 7.56957 28.2073 8.2662 29.3801 9.2924C30.5529 10.3186 31.349 11.6277 31.6666 13.0521M25.0833 1.45833C28.4654 1.78709 31.6193 3.11233 34.027 5.21646C36.4348 7.3206 37.9533 10.0786 38.3333 13.0375M36.6666 24.675V29.05C36.6685 29.4561 36.5734 29.8582 36.3875 30.2303C36.2015 30.6024 35.9288 30.9365 35.5868 31.211C35.2447 31.4856 34.8409 31.6947 34.4012 31.8248C33.9615 31.9549 33.4956 32.0032 33.0333 31.9667C27.9047 31.4791 22.9783 29.9456 18.65 27.4896C14.623 25.2505 11.2089 22.2632 8.64997 18.7396C5.83327 14.9351 4.08037 10.6035 3.5333 6.09583C3.49165 5.69255 3.54643 5.2861 3.69414 4.90236C3.84185 4.51862 4.07925 4.166 4.39125 3.86694C4.70324 3.56788 5.08298 3.32895 5.50629 3.16534C5.9296 3.00173 6.3872 2.91704 6.84997 2.91666H11.85C12.6588 2.9097 13.443 3.16032 14.0562 3.62181C14.6695 4.08331 15.0701 4.72419 15.1833 5.42499C15.3943 6.82509 15.7857 8.1998 16.35 9.52291C16.5742 10.0449 16.6227 10.6122 16.4898 11.1575C16.3569 11.7029 16.0481 12.2035 15.6 12.6L13.4833 14.4521C15.8559 18.1031 19.3107 21.1261 23.4833 23.2021L25.6 21.35C26.0531 20.9579 26.6252 20.6877 27.2485 20.5714C27.8718 20.4551 28.5201 20.4975 29.1166 20.6937C30.6288 21.1875 32.1999 21.5299 33.8 21.7146C34.6096 21.8145 35.349 22.1713 35.8775 22.7172C36.4061 23.263 36.6869 23.9598 36.6666 24.675Z" stroke="#1E1E1E" stroke-width="4" stroke-linecap="round" stroke-linejoin="round"/>
</g>
<defs>
<clipPath id="clip0_29_267">
<rect width="40" height="35" fill="white"/>
</clipPath>
</defs>
</svg>
